<svg width="181" height="42" viewBox="0 0 181 42" fill="none" xmlns="http://www.w3.org/2000/svg">
<path d="M0 42V0H13.0547C24.5616 0 30.2526 8.42902 30.2526 20.9859C30.2526 33.5711 24.5616 42 13.0547 42H0V42ZM7.48826 34.2976H12.6801C19.3197 34.2976 22.3648 29.4728 22.3648 20.9857C22.3648 12.4987 19.3197 7.67378 12.6801 7.67378H7.48826V34.2982V34.2976Z" fill="#FC0176"/>
<path d="M60.5263 0C46.4665 0 35.0669 7.31925 35.0669 14.823V27.177C35.0669 34.679 46.4665 42 60.5263 42C74.5861 42 85.9856 34.679 85.9856 27.177V14.823C85.9856 7.31925 74.5861 0 60.5263 0ZM38.6751 10.9534C39.7753 9.46511 41.4441 8.02663 43.4969 6.79347C45.7049 5.46709 48.2565 4.41587 51.0846 3.6704C52.0232 3.42245 52.9772 3.21352 53.9455 3.04166C53.3254 4.39144 51.815 4.96424 51.7404 4.99134C51.5757 5.04739 51.4203 5.1515 51.2898 5.30252C50.8765 5.78568 50.8765 6.56729 51.2898 7.04953C51.5757 7.38249 51.9829 7.48556 52.3448 7.35898C52.5515 7.28752 55.7463 6.11945 56.2623 2.70963C56.2623 2.70963 56.2623 2.7087 56.2623 2.70778C57.6655 2.55039 59.0889 2.47071 60.5263 2.47071C63.7724 2.47071 66.9501 2.8742 69.9679 3.6704C71.3757 4.04134 72.7153 4.48825 73.977 5.00755C73.8278 5.06638 73.6865 5.16413 73.5668 5.30333C73.1535 5.78557 73.1535 6.56729 73.5668 7.04953C73.9801 7.53258 74.653 7.53258 75.0679 7.04953C75.413 6.64604 75.4688 6.03259 75.2358 5.56032C76.0455 5.94029 76.8209 6.35107 77.5573 6.79347C79.6086 8.02663 81.2774 9.46511 82.3777 10.9534C83.3645 12.287 83.8632 13.5889 83.8632 14.8229V16.7473L74.1124 27.072C73.4893 27.7306 72.1685 28.1829 71.3386 28.0237L62.8014 26.3627C61.5304 26.1166 59.5397 26.1166 58.2671 26.3627L49.7143 28.0237C48.8844 28.1829 47.5637 27.7306 46.9406 27.072L37.1897 16.7473V14.8229C37.1895 13.5889 37.6883 12.2871 38.6751 10.9534ZM82.3775 31.0456C81.2772 32.5329 79.6084 33.9733 77.5571 35.2055C75.3475 36.5319 72.7961 37.5814 69.9678 38.3286C66.95 39.1248 63.7723 39.5283 60.5262 39.5283C57.28 39.5283 54.1023 39.1248 51.0845 38.3286C48.2564 37.5814 45.7048 36.5319 43.4952 35.2055C41.4439 33.9733 39.7751 32.5329 38.6749 31.0456C37.6881 29.712 37.1893 28.411 37.1893 27.177V20.0866L45.5121 28.8996C46.4522 29.893 47.9922 30.5264 49.3409 30.5264C49.5896 30.5264 49.832 30.5046 50.0636 30.4594L58.6163 28.8001C59.6558 28.5993 61.4134 28.5993 62.4529 28.802L70.9885 30.4596C72.471 30.7471 74.4273 30.0759 75.5401 28.8997L83.8628 20.0867V27.1771C83.863 28.411 83.3643 29.7121 82.3775 31.0456Z" fill="#FC0176"/>
<path d="M60.5356 19.6868C67.5468 19.6868 73.231 16.9391 73.231 13.5492C73.231 10.1601 67.5468 7.41144 60.5356 7.41144C53.5243 7.41144 47.8401 10.16 47.8401 13.5492C47.84 16.9391 53.5243 19.6868 60.5356 19.6868ZM68.6999 15.6074C66.5834 16.6298 63.6092 17.216 60.5356 17.216C57.462 17.216 54.4862 16.6298 52.3712 15.6074C52.1941 15.5214 52.0293 15.4363 51.8771 15.3522C52.0168 15.2744 52.1676 15.1975 52.3276 15.1197C54.4442 14.0973 57.4184 13.5103 60.492 13.5103C63.5656 13.5103 66.5398 14.0974 68.6564 15.1197C68.8335 15.2047 68.9983 15.2908 69.1505 15.3748C69.0107 15.4517 68.8599 15.5296 68.6999 15.6074ZM52.3712 11.4909C54.4862 10.4685 57.462 9.88227 60.5356 9.88227C63.6092 9.88227 66.5834 10.4686 68.6999 11.4909C70.6795 12.449 71.1084 13.3718 71.1084 13.5491C71.1084 13.5871 71.0897 13.6604 71.0369 13.7608C68.7589 12.1205 64.8866 11.0403 60.492 11.0403C56.1379 11.0403 52.2966 12.1006 50.0093 13.7156C49.9751 13.6387 49.9612 13.5817 49.9612 13.5491C49.9611 13.3718 50.39 12.449 52.3712 11.4909Z" fill="#FC0176"/>
<path d="M43.0355 15.9032V15.9022C43.4396 16.1637 43.9585 16.0959 44.3004 15.6969C44.7137 15.2147 44.7137 14.4321 44.3004 13.9499C44.2289 13.8666 44.1496 13.7988 44.0642 13.7446L44.0658 13.7436C43.4178 13.3247 43.3246 12.8434 43.3122 12.5178C43.2935 12.0536 43.449 11.6528 43.4505 11.6483L43.4459 11.6618L43.4443 11.6609C43.6385 11.2004 43.5733 10.6277 43.2438 10.2442C42.8288 9.76194 42.1559 9.76194 41.7426 10.2442C41.6586 10.3428 41.5903 10.4549 41.5406 10.5734C41.5033 10.6612 41.1801 11.4601 41.1894 12.4843C41.2017 13.9273 41.8576 15.1415 43.0355 15.9032Z" fill="#FC0176"/>
<path d="M71.2856 22.8361V22.837C71.0417 23.3119 71.0929 23.9344 71.4442 24.3433C71.8591 24.8247 72.532 24.8247 72.9453 24.3433C73.009 24.271 73.0602 24.1877 73.1038 24.1044H73.1069C74.1325 22.106 75.0975 22.2 75.1721 22.2108C75.5062 22.2877 75.8683 22.1755 76.1278 21.8725C76.541 21.3903 76.541 20.6086 76.1278 20.1254C75.9833 19.958 75.8076 19.8495 75.6227 19.7988V19.797C75.6134 19.7951 75.5995 19.7915 75.5838 19.7879C75.5808 19.787 75.5792 19.7861 75.5776 19.7861C75.3848 19.7417 74.7788 19.6468 73.9956 19.9707C72.9514 20.4024 72.0393 21.366 71.2856 22.8361ZM75.1704 22.2109C75.1455 22.2064 75.1331 22.201 75.1331 22.201V22.2C75.1455 22.2037 75.158 22.2073 75.1704 22.2109Z" fill="#FC0176"/>
<path d="M76.4414 11.1987C76.4414 11.2077 76.4414 11.2195 76.4429 11.2331C76.4429 11.2349 76.4445 11.2376 76.4445 11.2395C76.4632 11.462 76.5658 12.2102 77.1346 12.9829C77.8571 13.9645 79.0055 14.5806 80.5454 14.8131V14.8122C80.8609 14.8592 81.1902 14.7435 81.4327 14.4612C81.846 13.979 81.846 13.1972 81.4327 12.715C81.2586 12.5142 81.0426 12.3984 80.8173 12.364V12.3631C78.7474 12.05 78.5595 11.0177 78.5517 10.9742C78.558 11.0141 78.558 11.0367 78.558 11.0367H78.5564C78.5409 10.7481 78.4398 10.4649 78.2503 10.2442C77.8353 9.76194 77.1625 9.76194 76.7492 10.2442C76.5238 10.5057 76.4229 10.8558 76.4414 11.1987Z" fill="#FC0176"/>
<path d="M64.4576 5.81464C64.8742 5.3324 64.8742 4.54987 64.4576 4.06763C64.0443 3.58539 63.373 3.58539 62.9595 4.06763C62.5431 4.54987 62.5431 5.3324 62.9595 5.81464C63.373 6.29687 64.0443 6.29687 64.4576 5.81464Z" fill="#FC0176"/>
<path d="M65.0793 23.8312C64.666 24.3144 64.666 25.0961 65.0793 25.5774C65.4942 26.0606 66.167 26.0606 66.5803 25.5774C66.9936 25.0961 66.9936 24.3144 66.5803 23.8312C66.167 23.3481 65.4942 23.3481 65.0793 23.8312Z" fill="#FC0176"/>
<path d="M56.5949 22.5973C56.1783 23.0804 56.1783 23.862 56.5949 24.3433C57.0082 24.8265 57.6795 24.8265 58.093 24.3433C58.5094 23.862 58.5094 23.0804 58.093 22.5973C57.6795 22.1151 57.0082 22.1151 56.5949 22.5973Z" fill="#FC0176"/>
<path d="M45.6816 21.1416C45.6987 21.3199 45.8292 22.2508 46.6295 23.1329C47.5789 24.1769 49.0411 24.7053 50.979 24.7053C51.2508 24.7053 51.5228 24.5859 51.7294 24.3433C52.1443 23.862 52.1443 23.0804 51.7294 22.5973C51.5228 22.3557 51.2508 22.2354 50.979 22.2354C48.6666 22.2354 47.8772 21.2981 47.7824 20.8023C47.7887 20.8376 47.7902 20.8576 47.7902 20.8576H47.7886C47.7621 20.5897 47.6627 20.331 47.4856 20.1264C47.0723 19.6434 46.3994 19.6434 45.9845 20.1264C45.7483 20.4033 45.6457 20.7797 45.683 21.1416H45.6816V21.1416Z" fill="#FC0176"/>
<path d="M115.474 3.8147e-06H122.835V41.4266H114.292L98.5352 11.8116V41.4266H91.1738V3.8147e-06H99.6185L115.474 29.4432V3.8147e-06H115.474ZM141.577 42C133.773 42 127.667 37.3556 127.667 26.921V0.000927705H135.053V25.7452C135.053 32.0524 137.934 34.4031 141.577 34.4031C145.246 34.4031 148.151 32.0236 148.151 25.7452V0.000927705H155.537V26.921C155.537 37.3564 149.407 42 141.578 42H141.577ZM181 3.8147e-06V7.56858H172.555V41.4256H165.243V7.56858H156.749V3.8147e-06H181H181Z" fill="#FC0176"/>
</svg>
